# xmcd CD database file
#
# Track frame offsets:
#	150
#	25237
#	46660
#	86000
#	112443
#	131257
#	168146
#	189835
#	211828
#	247808
#	291489
#
# Disc length: 4440 seconds
#
# Revision: 0
# Processed by: cddbd v1.4PL0 Copyright (c) Steve Scherf et al.
# Submitted via: NeoAudio 9.9.9
#
DISCID=8f11560b
DTITLE=flavio boltro - 40°
DYEAR=2003
DGENRE=Jazz
TTITLE0=doctor k
TTITLE1=idea
TTITLE2=you're my everything
TTITLE3=take away
TTITLE4=first smile
TTITLE5=jazz a doc
TTITLE6=if i were a bell
TTITLE7=sabine
TTITLE8=les amis
TTITLE9=magic
TTITLE10=boltro
EXTD=YEAR: 2003
EXTT0=
EXTT1=
EXTT2=
EXTT3=
EXTT4=
EXTT5=
EXTT6=
EXTT7=
EXTT8=
EXTT9=
EXTT10=
PLAYORDER=
